<svg width="38" height="31" viewBox="0 0 38 31" fill="none" xmlns="http://www.w3.org/2000/svg">
<path d="M35.6152 18.6608V8.51009L36.0372 8.38366C37.6595 7.8975 38 7.07444 38 6.46955C37.9999 5.86467 37.6593 5.04161 36.0371 4.55567L22.1552 0.397154C21.3002 0.141031 20.1796 0 19.0001 0C17.8206 0 16.7001 0.141031 15.8449 0.397154L1.96301 4.55567C0.34059 5.04161 0 5.86467 0 6.46963C0 7.07451 0.340516 7.89765 1.96294 8.38373L7.15476 9.939V18.3191C7.15476 19.3597 7.83216 20.8255 11.0593 21.8997C13.1968 22.6111 16.0169 23.003 19 23.003C21.9831 23.003 24.8032 22.6111 26.9407 21.8997C30.1678 20.8255 30.8452 19.3597 30.8452 18.3191V9.93907L33.3886 9.17715V18.6608C32.0041 19.1264 31.0037 20.434 31.0037 21.9715V26.7343C31.0037 28.6603 32.5729 30.2273 34.5018 30.2273C36.4307 30.2273 38 28.6604 38 26.7343V21.9715C38.0001 20.434 36.9997 19.1263 35.6152 18.6608ZM16.4847 2.5267C17.1285 2.33379 18.0453 2.22322 19.0001 2.22322C19.9548 2.22322 20.8716 2.33379 21.5154 2.52662L34.6779 6.46963L29.4066 8.04876C29.4035 8.04972 29.4006 8.05054 29.3975 8.0515L21.5155 10.4127C20.8717 10.6055 19.955 10.7161 19.0002 10.7161C18.0455 10.7161 17.1286 10.6055 16.4848 10.4127L8.60277 8.0515C8.59973 8.05054 8.59676 8.04972 8.59371 8.04876L3.3224 6.46963L16.4847 2.5267ZM28.6188 15.3998C28.6188 18.4624 28.2146 19.1321 26.2367 19.7904C24.3202 20.4283 21.7502 20.7796 19.0001 20.7796C16.2499 20.7796 13.6799 20.4283 11.7634 19.7904C9.78567 19.1321 9.38132 18.4623 9.38132 18.3191V10.6059L15.845 12.5422C16.7 12.7983 17.8206 12.9393 19.0001 12.9393C20.1796 12.9393 21.3001 12.7983 22.1553 12.5422L28.6188 10.6059V15.3998ZM35.7735 26.7342C35.7735 27.4343 35.2031 28.0039 34.5019 28.0039C33.8008 28.0039 33.2303 27.4344 33.2303 26.7342V21.9714C33.2303 21.2713 33.8007 20.7016 34.5019 20.7016C35.2031 20.7016 35.7735 21.2713 35.7735 21.9714V26.7342Z" fill="black"/>
</svg>
